<svg version="1.1" xmlns="http://www.w3.org/2000/svg" xmlns:xlink="http://www.w3.org/1999/xlink" width="585" height="368"><defs/><g><g transform="translate(-25,-26) scale(1,1)"><rect fill="#C0C0C0" stroke="none" x="42" y="43" width="226" height="15" opacity="0.2"/></g><g transform="translate(-25,-26) scale(1,1)"><rect fill="#C0C0C0" stroke="none" x="42" y="57" width="565" height="334" opacity="0.2"/></g><g transform="translate(-25,-26) scale(1,1)"><rect fill="#a3e0ff" stroke="none" x="35" y="51" width="565" height="333"/></g><g transform="translate(-25,-26) scale(1,1)"><path fill="none" stroke="#000000" d="M 35 51 L 600 51 L 600 384 L 35 384 L 35 51 Z Z" stroke-miterlimit="10"/></g><g transform="translate(-25,-26) scale(1,1)"><rect fill="#a3e0ff" stroke="none" x="35" y="36" width="226" height="15"/></g><g transform="translate(-25,-26) scale(1,1)"><path fill="none" stroke="#000000" d="M 35 36 L 261 36 L 261 51 L 35 51 L 35 36 Z Z" stroke-miterlimit="10"/></g><g transform="translate(-25,-26) scale(1,1)"><rect fill="#a3e0ff" stroke="none" x="35" y="50" width="565" height="334"/></g><g transform="translate(-25,-26) scale(1,1)"><path fill="none" stroke="#000000" d="M 35 50 L 600 50 L 600 384 L 35 384 L 35 50 Z Z" stroke-miterlimit="10"/></g><g transform="translate(-25,-26) scale(1,1)"><g><path fill="none" stroke="none"/><text fill="#000000" stroke="none" font-family="monospace" font-size="11px" font-style="normal" font-weight="bold" text-decoration="none" x="267.991943359375" y="66.6953125">cs1302.gameutil</text></g></g><g transform="translate(-25,-26) scale(1,1)"><rect fill="#C0C0C0" stroke="none" x="57" y="103.5" width="226.83544921875" height="127" opacity="0.2"/></g><g transform="translate(-25,-26) scale(1,1)"><rect fill="#fffca0" stroke="none" x="50" y="96.5" width="226.83544921875" height="127"/></g><g transform="translate(-25,-26) scale(1,1)"><path fill="none" stroke="#000000" d="M 50 96.5 L 276.83544921875 96.5 L 276.83544921875 223.5 L 50 223.5 L 50 96.5 Z Z" stroke-miterlimit="10"/></g><g transform="translate(-25,-26) scale(1,1)"><path fill="none" stroke="#000000" d="M 50 130.5 L 276.83544921875 130.5" stroke-miterlimit="10"/></g><g transform="translate(-25,-26) scale(1,1)"><path fill="none" stroke="#000000" d="M 50 190.5 L 276.83544921875 190.5" stroke-miterlimit="10"/></g><g transform="translate(-25,-26) scale(1,1)"><g><path fill="none" stroke="none"/><text fill="#000000" stroke="none" font-family="Courier" font-size="11px" font-style="normal" font-weight="normal" text-decoration="none" x="143.614501953125" y="109.05126953125">«enum»</text></g></g><g transform="translate(-25,-26) scale(1,1)"><g><path fill="none" stroke="none"/><text fill="#000000" stroke="none" font-family="Courier" font-size="11px" font-style="normal" font-weight="bold" text-decoration="none" x="133.712890625" y="123.015380859375">GamePhase</text></g></g><g transform="translate(-25,-26) scale(1,1)"><g><path fill="none" stroke="none"/><text fill="#000000" stroke="none" font-family="Courier" font-size="11px" font-style="normal" font-weight="normal" text-decoration="none" x="55" y="143.68505859375">+NEW</text><path fill="none" stroke="#000000" d="M 55 146 L 81.404296875 146" stroke-miterlimit="10"/></g></g><g transform="translate(-25,-26) scale(1,1)"><g><path fill="none" stroke="none"/><text fill="#000000" stroke="none" font-family="Courier" font-size="11px" font-style="normal" font-weight="normal" text-decoration="none" x="55" y="156.68505859375">+READY</text><path fill="none" stroke="#000000" d="M 55 159 L 94.6064453125 159" stroke-miterlimit="10"/></g></g><g transform="translate(-25,-26) scale(1,1)"><g><path fill="none" stroke="none"/><text fill="#000000" stroke="none" font-family="Courier" font-size="11px" font-style="normal" font-weight="normal" text-decoration="none" x="55" y="169.68505859375">+PLAYABLE</text><path fill="none" stroke="#000000" d="M 55 172 L 114.40966796875 172" stroke-miterlimit="10"/></g></g><g transform="translate(-25,-26) scale(1,1)"><g><path fill="none" stroke="none"/><text fill="#000000" stroke="none" font-family="Courier" font-size="11px" font-style="normal" font-weight="normal" text-decoration="none" x="55" y="182.773681640625">+OVER</text><path fill="none" stroke="#000000" d="M 55 185 L 88.00537109375 185" stroke-miterlimit="10"/></g></g><g transform="translate(-25,-26) scale(1,1)"><g><path fill="none" stroke="none"/><text fill="#000000" stroke="none" font-family="Courier" font-size="11px" font-style="normal" font-weight="normal" text-decoration="none" x="55" y="204.1953125">+valueOf(name: String): GamePhase</text><path fill="none" stroke="#000000" d="M 55 206 L 272.83544921875 206" stroke-miterlimit="10"/></g></g><g transform="translate(-25,-26) scale(1,1)"><g><path fill="none" stroke="none"/><text fill="#000000" stroke="none" font-family="Courier" font-size="11px" font-style="normal" font-weight="normal" text-decoration="none" x="55" y="217.015380859375">+values(): GamePhase[]</text><path fill="none" stroke="#000000" d="M 55 219 L 200.2236328125 219" stroke-miterlimit="10"/></g></g><g transform="translate(-25,-26) scale(1,1)"><rect fill="#C0C0C0" stroke="none" x="314.83544921875" y="90.5" width="200.43115234375" height="179" opacity="0.2"/></g><g transform="translate(-25,-26) scale(1,1)"><rect fill="#fffca0" stroke="none" x="307.83544921875" y="83.5" width="200.43115234375" height="179"/></g><g transform="translate(-25,-26) scale(1,1)"><path fill="none" stroke="#000000" d="M 307.83544921875 83.5 L 508.2666015625 83.5 L 508.2666015625 262.5 L 307.83544921875 262.5 L 307.83544921875 83.5 Z Z" stroke-miterlimit="10"/></g><g transform="translate(-25,-26) scale(1,1)"><path fill="none" stroke="#000000" d="M 307.83544921875 117.5 L 508.2666015625 117.5" stroke-miterlimit="10"/></g><g transform="translate(-25,-26) scale(1,1)"><path fill="none" stroke="#000000" d="M 307.83544921875 203.5 L 508.2666015625 203.5" stroke-miterlimit="10"/></g><g transform="translate(-25,-26) scale(1,1)"><g><path fill="none" stroke="none"/><text fill="#000000" stroke="none" font-family="Courier" font-size="11px" font-style="normal" font-weight="normal" text-decoration="none" x="388.247802734375" y="96.05126953125">«enum»</text></g></g><g transform="translate(-25,-26) scale(1,1)"><g><path fill="none" stroke="none"/><text fill="#000000" stroke="none" font-family="Courier" font-size="11px" font-style="normal" font-weight="bold" text-decoration="none" x="391.54833984375" y="110.015380859375">Token</text></g></g><g transform="translate(-25,-26) scale(1,1)"><g><path fill="none" stroke="none"/><text fill="#000000" stroke="none" font-family="Courier" font-size="11px" font-style="normal" font-weight="normal" text-decoration="none" x="312.83544921875" y="130.68505859375">+BLUE</text><path fill="none" stroke="#000000" d="M 312.83544921875 133 L 345.8408203125 133" stroke-miterlimit="10"/></g></g><g transform="translate(-25,-26) scale(1,1)"><g><path fill="none" stroke="none"/><text fill="#000000" stroke="none" font-family="Courier" font-size="11px" font-style="normal" font-weight="normal" text-decoration="none" x="312.83544921875" y="143.768310546875">+CYAN</text><path fill="none" stroke="#000000" d="M 312.83544921875 146 L 345.8408203125 146" stroke-miterlimit="10"/></g></g><g transform="translate(-25,-26) scale(1,1)"><g><path fill="none" stroke="none"/><text fill="#000000" stroke="none" font-family="Courier" font-size="11px" font-style="normal" font-weight="normal" text-decoration="none" x="312.83544921875" y="156.773681640625">+GREEN</text><path fill="none" stroke="#000000" d="M 312.83544921875 159 L 352.44189453125 159" stroke-miterlimit="10"/></g></g><g transform="translate(-25,-26) scale(1,1)"><g><path fill="none" stroke="none"/><text fill="#000000" stroke="none" font-family="Courier" font-size="11px" font-style="normal" font-weight="normal" text-decoration="none" x="312.83544921875" y="169.68505859375">+PURPLE</text><path fill="none" stroke="#000000" d="M 312.83544921875 172 L 359.04296875 172" stroke-miterlimit="10"/></g></g><g transform="translate(-25,-26) scale(1,1)"><g><path fill="none" stroke="none"/><text fill="#000000" stroke="none" font-family="Courier" font-size="11px" font-style="normal" font-weight="normal" text-decoration="none" x="312.83544921875" y="182.68505859375">+RED</text><path fill="none" stroke="#000000" d="M 312.83544921875 185 L 339.23974609375 185" stroke-miterlimit="10"/></g></g><g transform="translate(-25,-26) scale(1,1)"><g><path fill="none" stroke="none"/><text fill="#000000" stroke="none" font-family="Courier" font-size="11px" font-style="normal" font-weight="normal" text-decoration="none" x="312.83544921875" y="195.773681640625">+YELLOW</text><path fill="none" stroke="#000000" d="M 312.83544921875 198 L 359.04296875 198" stroke-miterlimit="10"/></g></g><g transform="translate(-25,-26) scale(1,1)"><g><path fill="none" stroke="none"/><text fill="#000000" stroke="none" font-family="Courier" font-size="11px" font-style="normal" font-weight="normal" text-decoration="none" x="312.83544921875" y="217.1953125">+valueOf(name: String): Token</text><path fill="none" stroke="#000000" d="M 312.83544921875 219 L 504.2666015625 219" stroke-miterlimit="10"/></g></g><g transform="translate(-25,-26) scale(1,1)"><g><path fill="none" stroke="none"/><text fill="#000000" stroke="none" font-family="Courier" font-size="11px" font-style="normal" font-weight="normal" text-decoration="none" x="312.83544921875" y="230.015380859375">+values(): Token[]</text><path fill="none" stroke="#000000" d="M 312.83544921875 232 L 431.65478515625 232" stroke-miterlimit="10"/></g></g><g transform="translate(-25,-26) scale(1,1)"><g><path fill="none" stroke="none"/><text fill="#000000" stroke="none" font-family="Courier" font-size="11px" font-style="normal" font-weight="normal" text-decoration="none" x="312.83544921875" y="243.1953125">+toColorString(): String</text></g></g><g transform="translate(-25,-26) scale(1,1)"><g><path fill="none" stroke="none"/><text fill="#000000" stroke="none" font-family="Courier" font-size="11px" font-style="normal" font-weight="normal" text-decoration="none" x="312.83544921875" y="256.1953125">+toPlainString(): String</text></g></g><g transform="translate(-25,-26) scale(1,1)"><path fill="none" stroke="#000000" d="M 408 311 L 408 264" stroke-miterlimit="10" stroke-dasharray="3"/></g><g transform="translate(-25,-26) scale(1,1)"><path fill="none" stroke="#000000" d="M 412.209517756016 274.16267485762415 L 408 264 L 403.790482243984 274.16267485762415" stroke-miterlimit="10"/></g><g transform="translate(-25,-26) scale(1,1)"><g><path fill="none" stroke="none"/><text fill="#000000" stroke="none" font-family="Courier" font-size="11px" font-style="normal" font-weight="normal" text-decoration="none" x="415.5" y="292.112548828125">+uses</text></g></g><g transform="translate(-25,-26) scale(1,1)"><rect fill="#C0C0C0" stroke="none" x="235.62255859375" y="319" width="358.85693359375" height="56" opacity="0.2"/></g><g transform="translate(-25,-26) scale(1,1)"><rect fill="#fffca0" stroke="none" x="228.62255859375" y="312" width="358.85693359375" height="56"/></g><g transform="translate(-25,-26) scale(1,1)"><path fill="none" stroke="#000000" d="M 228.62255859375 312 L 587.4794921875 312 L 587.4794921875 368 L 228.62255859375 368 L 228.62255859375 312 Z Z" stroke-miterlimit="10"/></g><g transform="translate(-25,-26) scale(1,1)"><path fill="none" stroke="#000000" d="M 228.62255859375 335 L 587.4794921875 335" stroke-miterlimit="10"/></g><g transform="translate(-25,-26) scale(1,1)"><g><path fill="none" stroke="none"/><text fill="#000000" stroke="none" font-family="Courier" font-size="11px" font-style="normal" font-weight="bold" text-decoration="none" x="378.34619140625" y="327.6953125">TokenGrid</text></g></g><g transform="translate(-25,-26) scale(1,1)"><g><path fill="none" stroke="none"/><text fill="#000000" stroke="none" font-family="Courier" font-size="11px" font-style="normal" font-weight="normal" text-decoration="none" x="233.62255859375" y="348.6953125">+println(grid: Token[][]): void</text><path fill="none" stroke="#000000" d="M 233.62255859375 350.5 L 438.255859375 350.5" stroke-miterlimit="10"/></g></g><g transform="translate(-25,-26) scale(1,1)"><g><path fill="none" stroke="none"/><text fill="#000000" stroke="none" font-family="Courier" font-size="11px" font-style="normal" font-weight="normal" text-decoration="none" x="233.62255859375" y="361.6953125">+println(grid: Token[][], showIndices: boolean): void</text><path fill="none" stroke="#000000" d="M 233.62255859375 363.5 L 583.4794921875 363.5" stroke-miterlimit="10"/></g></g></g></svg>