<svg version="1.1" xmlns="http://www.w3.org/2000/svg" xmlns:xlink="http://www.w3.org/1999/xlink" width="378.85693359375" height="76"><defs/><g><g transform="translate(-14,-6) scale(1,1)"><rect fill="#C0C0C0" stroke="none" x="31" y="23" width="358.85693359375" height="56" opacity="0.2"/></g><g transform="translate(-14,-6) scale(1,1)"><rect fill="#fffca0" stroke="none" x="24" y="16" width="358.85693359375" height="56"/></g><g transform="translate(-14,-6) scale(1,1)"><path fill="none" stroke="#000000" d="M 24 16 L 382.85693359375 16 L 382.85693359375 72 L 24 72 L 24 16 Z Z" stroke-miterlimit="10"/></g><g transform="translate(-14,-6) scale(1,1)"><path fill="none" stroke="#000000" d="M 24 39 L 382.85693359375 39" stroke-miterlimit="10"/></g><g transform="translate(-14,-6) scale(1,1)"><g><path fill="none" stroke="none"/><text fill="#000000" stroke="none" font-family="Courier" font-size="11px" font-style="normal" font-weight="bold" text-decoration="none" x="173.7236328125" y="31.6953125">TokenGrid</text></g></g><g transform="translate(-14,-6) scale(1,1)"><g><path fill="none" stroke="none"/><text fill="#000000" stroke="none" font-family="Courier" font-size="11px" font-style="normal" font-weight="normal" text-decoration="none" x="29" y="52.6953125">+println(grid: Token[][]): void</text><path fill="none" stroke="#000000" d="M 29 54.5 L 233.63330078125 54.5" stroke-miterlimit="10"/></g></g><g transform="translate(-14,-6) scale(1,1)"><g><path fill="none" stroke="none"/><text fill="#000000" stroke="none" font-family="Courier" font-size="11px" font-style="normal" font-weight="normal" text-decoration="none" x="29" y="65.6953125">+println(grid: Token[][], showIndices: boolean): void</text><path fill="none" stroke="#000000" d="M 29 67.5 L 378.85693359375 67.5" stroke-miterlimit="10"/></g></g></g></svg>