<svg version="1.1" xmlns="http://www.w3.org/2000/svg" xmlns:xlink="http://www.w3.org/1999/xlink" width="246.83544921875" height="147"><defs/><g><g transform="translate(-6,-6) scale(1,1)"><rect fill="#C0C0C0" stroke="none" x="23" y="23" width="226.83544921875" height="127" opacity="0.2"/></g><g transform="translate(-6,-6) scale(1,1)"><rect fill="#fffca0" stroke="none" x="16" y="16" width="226.83544921875" height="127"/></g><g transform="translate(-6,-6) scale(1,1)"><path fill="none" stroke="#000000" d="M 16 16 L 242.83544921875 16 L 242.83544921875 143 L 16 143 L 16 16 Z Z" stroke-miterlimit="10"/></g><g transform="translate(-6,-6) scale(1,1)"><path fill="none" stroke="#000000" d="M 16 50 L 242.83544921875 50" stroke-miterlimit="10"/></g><g transform="translate(-6,-6) scale(1,1)"><path fill="none" stroke="#000000" d="M 16 110 L 242.83544921875 110" stroke-miterlimit="10"/></g><g transform="translate(-6,-6) scale(1,1)"><g><path fill="none" stroke="none"/><text fill="#000000" stroke="none" font-family="Courier" font-size="11px" font-style="normal" font-weight="normal" text-decoration="none" x="109.614501953125" y="28.55126953125">«enum»</text></g></g><g transform="translate(-6,-6) scale(1,1)"><g><path fill="none" stroke="none"/><text fill="#000000" stroke="none" font-family="Courier" font-size="11px" font-style="normal" font-weight="bold" text-decoration="none" x="99.712890625" y="42.515380859375">GamePhase</text></g></g><g transform="translate(-6,-6) scale(1,1)"><g><path fill="none" stroke="none"/><text fill="#000000" stroke="none" font-family="Courier" font-size="11px" font-style="normal" font-weight="normal" text-decoration="none" x="21" y="63.18505859375">+NEW</text><path fill="none" stroke="#000000" d="M 21 65.5 L 47.404296875 65.5" stroke-miterlimit="10"/></g></g><g transform="translate(-6,-6) scale(1,1)"><g><path fill="none" stroke="none"/><text fill="#000000" stroke="none" font-family="Courier" font-size="11px" font-style="normal" font-weight="normal" text-decoration="none" x="21" y="76.18505859375">+READY</text><path fill="none" stroke="#000000" d="M 21 78.5 L 60.6064453125 78.5" stroke-miterlimit="10"/></g></g><g transform="translate(-6,-6) scale(1,1)"><g><path fill="none" stroke="none"/><text fill="#000000" stroke="none" font-family="Courier" font-size="11px" font-style="normal" font-weight="normal" text-decoration="none" x="21" y="89.18505859375">+PLAYABLE</text><path fill="none" stroke="#000000" d="M 21 91.5 L 80.40966796875 91.5" stroke-miterlimit="10"/></g></g><g transform="translate(-6,-6) scale(1,1)"><g><path fill="none" stroke="none"/><text fill="#000000" stroke="none" font-family="Courier" font-size="11px" font-style="normal" font-weight="normal" text-decoration="none" x="21" y="102.273681640625">+OVER</text><path fill="none" stroke="#000000" d="M 21 104.5 L 54.00537109375 104.5" stroke-miterlimit="10"/></g></g><g transform="translate(-6,-6) scale(1,1)"><g><path fill="none" stroke="none"/><text fill="#000000" stroke="none" font-family="Courier" font-size="11px" font-style="normal" font-weight="normal" text-decoration="none" x="21" y="123.6953125">+valueOf(name: String): GamePhase</text><path fill="none" stroke="#000000" d="M 21 125.5 L 238.83544921875 125.5" stroke-miterlimit="10"/></g></g><g transform="translate(-6,-6) scale(1,1)"><g><path fill="none" stroke="none"/><text fill="#000000" stroke="none" font-family="Courier" font-size="11px" font-style="normal" font-weight="normal" text-decoration="none" x="21" y="136.515380859375">+values(): GamePhase[]</text><path fill="none" stroke="#000000" d="M 21 138.5 L 166.2236328125 138.5" stroke-miterlimit="10"/></g></g></g></svg>