<svg version="1.1" xmlns="http://www.w3.org/2000/svg" xmlns:xlink="http://www.w3.org/1999/xlink" width="220.43115234375" height="199"><defs/><g><g transform="translate(-22,-22) scale(1,1)"><rect fill="#C0C0C0" stroke="none" x="39" y="39" width="200.43115234375" height="179" opacity="0.2"/></g><g transform="translate(-22,-22) scale(1,1)"><rect fill="#fffca0" stroke="none" x="32" y="32" width="200.43115234375" height="179"/></g><g transform="translate(-22,-22) scale(1,1)"><path fill="none" stroke="#000000" d="M 32 32 L 232.43115234375 32 L 232.43115234375 211 L 32 211 L 32 32 Z Z" stroke-miterlimit="10"/></g><g transform="translate(-22,-22) scale(1,1)"><path fill="none" stroke="#000000" d="M 32 66 L 232.43115234375 66" stroke-miterlimit="10"/></g><g transform="translate(-22,-22) scale(1,1)"><path fill="none" stroke="#000000" d="M 32 152 L 232.43115234375 152" stroke-miterlimit="10"/></g><g transform="translate(-22,-22) scale(1,1)"><g><path fill="none" stroke="none"/><text fill="#000000" stroke="none" font-family="Courier" font-size="11px" font-style="normal" font-weight="normal" text-decoration="none" x="112.412353515625" y="44.55126953125">«enum»</text></g></g><g transform="translate(-22,-22) scale(1,1)"><g><path fill="none" stroke="none"/><text fill="#000000" stroke="none" font-family="Courier" font-size="11px" font-style="normal" font-weight="bold" text-decoration="none" x="115.712890625" y="58.515380859375">Token</text></g></g><g transform="translate(-22,-22) scale(1,1)"><g><path fill="none" stroke="none"/><text fill="#000000" stroke="none" font-family="Courier" font-size="11px" font-style="normal" font-weight="normal" text-decoration="none" x="37" y="79.18505859375">+BLUE</text><path fill="none" stroke="#000000" d="M 37 81.5 L 70.00537109375 81.5" stroke-miterlimit="10"/></g></g><g transform="translate(-22,-22) scale(1,1)"><g><path fill="none" stroke="none"/><text fill="#000000" stroke="none" font-family="Courier" font-size="11px" font-style="normal" font-weight="normal" text-decoration="none" x="37" y="92.268310546875">+CYAN</text><path fill="none" stroke="#000000" d="M 37 94.5 L 70.00537109375 94.5" stroke-miterlimit="10"/></g></g><g transform="translate(-22,-22) scale(1,1)"><g><path fill="none" stroke="none"/><text fill="#000000" stroke="none" font-family="Courier" font-size="11px" font-style="normal" font-weight="normal" text-decoration="none" x="37" y="105.273681640625">+GREEN</text><path fill="none" stroke="#000000" d="M 37 107.5 L 76.6064453125 107.5" stroke-miterlimit="10"/></g></g><g transform="translate(-22,-22) scale(1,1)"><g><path fill="none" stroke="none"/><text fill="#000000" stroke="none" font-family="Courier" font-size="11px" font-style="normal" font-weight="normal" text-decoration="none" x="37" y="118.18505859375">+PURPLE</text><path fill="none" stroke="#000000" d="M 37 120.5 L 83.20751953125 120.5" stroke-miterlimit="10"/></g></g><g transform="translate(-22,-22) scale(1,1)"><g><path fill="none" stroke="none"/><text fill="#000000" stroke="none" font-family="Courier" font-size="11px" font-style="normal" font-weight="normal" text-decoration="none" x="37" y="131.18505859375">+RED</text><path fill="none" stroke="#000000" d="M 37 133.5 L 63.404296875 133.5" stroke-miterlimit="10"/></g></g><g transform="translate(-22,-22) scale(1,1)"><g><path fill="none" stroke="none"/><text fill="#000000" stroke="none" font-family="Courier" font-size="11px" font-style="normal" font-weight="normal" text-decoration="none" x="37" y="144.273681640625">+YELLOW</text><path fill="none" stroke="#000000" d="M 37 146.5 L 83.20751953125 146.5" stroke-miterlimit="10"/></g></g><g transform="translate(-22,-22) scale(1,1)"><g><path fill="none" stroke="none"/><text fill="#000000" stroke="none" font-family="Courier" font-size="11px" font-style="normal" font-weight="normal" text-decoration="none" x="37" y="165.6953125">+valueOf(name: String): Token</text><path fill="none" stroke="#000000" d="M 37 167.5 L 228.43115234375 167.5" stroke-miterlimit="10"/></g></g><g transform="translate(-22,-22) scale(1,1)"><g><path fill="none" stroke="none"/><text fill="#000000" stroke="none" font-family="Courier" font-size="11px" font-style="normal" font-weight="normal" text-decoration="none" x="37" y="178.515380859375">+values(): Token[]</text><path fill="none" stroke="#000000" d="M 37 180.5 L 155.8193359375 180.5" stroke-miterlimit="10"/></g></g><g transform="translate(-22,-22) scale(1,1)"><g><path fill="none" stroke="none"/><text fill="#000000" stroke="none" font-family="Courier" font-size="11px" font-style="normal" font-weight="normal" text-decoration="none" x="37" y="191.6953125">+toColorString(): String</text></g></g><g transform="translate(-22,-22) scale(1,1)"><g><path fill="none" stroke="none"/><text fill="#000000" stroke="none" font-family="Courier" font-size="11px" font-style="normal" font-weight="normal" text-decoration="none" x="37" y="204.6953125">+toPlainString(): String</text></g></g></g></svg>