<svg version="1.1" xmlns="http://www.w3.org/2000/svg" xmlns:xlink="http://www.w3.org/1999/xlink" width="484" height="186"><defs/><g><g transform="translate(-86,-22) scale(1,1)"><rect fill="#C0C0C0" stroke="none" x="103" y="87" width="147.62255859375" height="95" opacity="0.2"/></g><g transform="translate(-86,-22) scale(1,1)"><rect fill="#ffffff" stroke="none" x="96" y="80" width="147.62255859375" height="95"/></g><g transform="translate(-86,-22) scale(1,1)"><path fill="none" stroke="#000000" d="M 96 80 L 243.62255859375 80 L 243.62255859375 175 L 96 175 L 96 80 Z Z" stroke-miterlimit="10"/></g><g transform="translate(-86,-22) scale(1,1)"><rect fill="#ffffff" stroke="none" x="96" y="80" width="147.62255859375" height="95"/></g><g transform="translate(-86,-22) scale(1,1)"><path fill="none" stroke="#000000" d="M 96 80 L 243.62255859375 80 L 243.62255859375 175 L 96 175 L 96 80 Z Z" stroke-miterlimit="10"/></g><g transform="translate(-86,-22) scale(1,1)"><path fill="none" stroke="#000000" d="M 96 103 L 243.62255859375 103" stroke-miterlimit="10"/></g><g transform="translate(-86,-22) scale(1,1)"><g><path fill="none" stroke="none"/><text fill="#000000" stroke="none" font-family="Courier" font-size="11px" font-style="normal" font-weight="bold" text-decoration="none" x="133.50537109375" y="95.268310546875">ConnectFour</text><path fill="none" stroke="#000000" d="M 206.1171875 97.5 L 133.50537109375 97.5" stroke-miterlimit="10"/></g></g><g transform="translate(-86,-22) scale(1,1)"><g><path fill="none" stroke="none"/><text fill="#000000" stroke="none" font-family="Courier" font-size="11px" font-style="normal" font-weight="normal" text-decoration="none" x="101" y="116.6953125">+rows: int = 6</text></g></g><g transform="translate(-86,-22) scale(1,1)"><g><path fill="none" stroke="none"/><text fill="#000000" stroke="none" font-family="Courier" font-size="11px" font-style="normal" font-weight="normal" text-decoration="none" x="101" y="129.6953125">+cols: int = 7</text></g></g><g transform="translate(-86,-22) scale(1,1)"><g><path fill="none" stroke="none"/><text fill="#000000" stroke="none" font-family="Courier" font-size="11px" font-style="normal" font-weight="normal" text-decoration="none" x="101" y="142.6953125">+grid: Token[][] =  </text></g></g><g transform="translate(-86,-22) scale(1,1)"><g><path fill="none" stroke="none"/><text fill="#000000" stroke="none" font-family="Courier" font-size="11px" font-style="normal" font-weight="normal" text-decoration="none" x="101" y="155.515380859375">+player: Token[] =  </text></g></g><g transform="translate(-86,-22) scale(1,1)"><g><path fill="none" stroke="none"/><text fill="#000000" stroke="none" font-family="Courier" font-size="11px" font-style="normal" font-weight="normal" text-decoration="none" x="101" y="168.515380859375">+phase: GamePhase =  </text></g></g><g transform="translate(-86,-22) scale(1,1)"><rect fill="#ffffff" stroke="none" x="272" y="32" width="288" height="87"/></g><g transform="translate(-86,-22) scale(1,1)"><path fill="none" stroke="#000000" d="M 272 32 L 560 32 L 560 119 L 272 119 L 272 32 Z Z" stroke-miterlimit="10"/></g><g transform="translate(-86,-22) scale(1,1)"><g><path fill="none" stroke="none"/><text fill="#000000" stroke="none" font-family="Courier" font-size="11px" font-style="normal" font-weight="normal" text-decoration="none" x="277" y="44.03076171875">[null, null, null, null, null, null, null]</text></g></g><g transform="translate(-86,-22) scale(1,1)"><g><path fill="none" stroke="none"/><text fill="#000000" stroke="none" font-family="Courier" font-size="11px" font-style="normal" font-weight="normal" text-decoration="none" x="277" y="57.03076171875">[null, null, null, null, null, null, null]</text></g></g><g transform="translate(-86,-22) scale(1,1)"><g><path fill="none" stroke="none"/><text fill="#000000" stroke="none" font-family="Courier" font-size="11px" font-style="normal" font-weight="normal" text-decoration="none" x="277" y="70.03076171875">[null, null, null, null, null, null, null]</text></g></g><g transform="translate(-86,-22) scale(1,1)"><g><path fill="none" stroke="none"/><text fill="#000000" stroke="none" font-family="Courier" font-size="11px" font-style="normal" font-weight="normal" text-decoration="none" x="277" y="83.03076171875">[null, null, null, null, null, null, null]</text></g></g><g transform="translate(-86,-22) scale(1,1)"><g><path fill="none" stroke="none"/><text fill="#000000" stroke="none" font-family="Courier" font-size="11px" font-style="normal" font-weight="normal" text-decoration="none" x="277" y="96.03076171875">[null, null, null, null, null, null, null]</text></g></g><g transform="translate(-86,-22) scale(1,1)"><g><path fill="none" stroke="none"/><text fill="#000000" stroke="none" font-family="Courier" font-size="11px" font-style="normal" font-weight="normal" text-decoration="none" x="277" y="109.03076171875">[null, null, null, null, null, null, null]</text></g></g><g transform="translate(-86,-22) scale(1,1)"><rect fill="#ffffff" stroke="none" x="272" y="136" width="168" height="22"/></g><g transform="translate(-86,-22) scale(1,1)"><path fill="none" stroke="#000000" d="M 272 136 L 440 136 L 440 158 L 272 158 L 272 136 Z Z" stroke-miterlimit="10"/></g><g transform="translate(-86,-22) scale(1,1)"><g><path fill="none" stroke="none"/><text fill="#000000" stroke="none" font-family="Courier" font-size="11px" font-style="normal" font-weight="normal" text-decoration="none" x="277" y="148.03076171875">[Token.RED, Token.BLUE]</text></g></g><g transform="translate(-86,-22) scale(1,1)"><rect fill="#C0C0C0" stroke="none" x="279" y="183" width="108.01611328125" height="22" opacity="0.2"/></g><g transform="translate(-86,-22) scale(1,1)"><rect fill="#ffffff" stroke="none" x="272" y="176" width="108.01611328125" height="22"/></g><g transform="translate(-86,-22) scale(1,1)"><path fill="none" stroke="#000000" d="M 272 176 L 380.01611328125 176 L 380.01611328125 198 L 272 198 L 272 176 Z Z" stroke-miterlimit="10"/></g><g transform="translate(-86,-22) scale(1,1)"><rect fill="#ffffff" stroke="none" x="272" y="176" width="108.01611328125" height="22"/></g><g transform="translate(-86,-22) scale(1,1)"><path fill="none" stroke="#000000" d="M 272 176 L 380.01611328125 176 L 380.01611328125 198 L 272 198 L 272 176 Z Z" stroke-miterlimit="10"/></g><g transform="translate(-86,-22) scale(1,1)"><g><path fill="none" stroke="none"/><text fill="#000000" stroke="none" font-family="Courier" font-size="11px" font-style="normal" font-weight="bold" text-decoration="none" x="276.5" y="191.515380859375">GamePhase.READY</text><path fill="none" stroke="#000000" d="M 375.51611328125 193.5 L 276.5 193.5" stroke-miterlimit="10"/></g></g><g transform="translate(-86,-22) scale(1,1)"><path fill="none" stroke="#000000" d="M 224 136 L 272 82" stroke-miterlimit="10"/></g><g transform="translate(-86,-22) scale(1,1)"><path fill="none" stroke="#000000" d="M 268.3945191168192 92.39232926734992 L 272 82 L 262.1020535207978 86.79902651533094" stroke-miterlimit="10"/></g><g transform="translate(-86,-22) scale(1,1)"><path fill="none" stroke="#000000" d="M 224 152 L 272 147" stroke-miterlimit="10"/></g><g transform="translate(-86,-22) scale(1,1)"><path fill="none" stroke="#000000" d="M 262.328148154357 152.23977880028656 L 272 147 L 261.4558848517141 143.86605109491435" stroke-miterlimit="10"/></g><g transform="translate(-86,-22) scale(1,1)"><path fill="none" stroke="#000000" d="M 232 168 L 272 187" stroke-miterlimit="10"/></g><g transform="translate(-86,-22) scale(1,1)"><path fill="none" stroke="#000000" d="M 261.0141621377763 186.44199779128374 L 272 187 L 264.62640669630605 178.83727240490535" stroke-miterlimit="10"/></g></g></svg>