<svg version="1.1" xmlns="http://www.w3.org/2000/svg" xmlns:xlink="http://www.w3.org/1999/xlink" width="524" height="170"><defs/><g><g transform="translate(-134,-46) scale(1,1)"><rect fill="#C0C0C0" stroke="none" x="151" y="95" width="167.42578125" height="95" opacity="0.2"/></g><g transform="translate(-134,-46) scale(1,1)"><rect fill="#ffffff" stroke="none" x="144" y="88" width="167.42578125" height="95"/></g><g transform="translate(-134,-46) scale(1,1)"><path fill="none" stroke="#000000" d="M 144 88 L 311.42578125 88 L 311.42578125 183 L 144 183 L 144 88 Z Z" stroke-miterlimit="10"/></g><g transform="translate(-134,-46) scale(1,1)"><rect fill="#ffffff" stroke="none" x="144" y="88" width="167.42578125" height="95"/></g><g transform="translate(-134,-46) scale(1,1)"><path fill="none" stroke="#000000" d="M 144 88 L 311.42578125 88 L 311.42578125 183 L 144 183 L 144 88 Z Z" stroke-miterlimit="10"/></g><g transform="translate(-134,-46) scale(1,1)"><path fill="none" stroke="#000000" d="M 144 111 L 311.42578125 111" stroke-miterlimit="10"/></g><g transform="translate(-134,-46) scale(1,1)"><g><path fill="none" stroke="none"/><text fill="#000000" stroke="none" font-family="Courier" font-size="11px" font-style="normal" font-weight="bold" text-decoration="none" x="191.406982421875" y="103.268310546875">ConnectFour</text><path fill="none" stroke="#000000" d="M 264.018798828125 105.5 L 191.406982421875 105.5" stroke-miterlimit="10"/></g></g><g transform="translate(-134,-46) scale(1,1)"><g><path fill="none" stroke="none"/><text fill="#000000" stroke="none" font-family="Courier" font-size="11px" font-style="normal" font-weight="normal" text-decoration="none" x="149" y="124.6953125">+rows: int = 6</text></g></g><g transform="translate(-134,-46) scale(1,1)"><g><path fill="none" stroke="none"/><text fill="#000000" stroke="none" font-family="Courier" font-size="11px" font-style="normal" font-weight="normal" text-decoration="none" x="149" y="137.6953125">+cols: int = 7</text></g></g><g transform="translate(-134,-46) scale(1,1)"><g><path fill="none" stroke="none"/><text fill="#000000" stroke="none" font-family="Courier" font-size="11px" font-style="normal" font-weight="normal" text-decoration="none" x="149" y="150.6953125">+grid: Token[][] =  </text></g></g><g transform="translate(-134,-46) scale(1,1)"><g><path fill="none" stroke="none"/><text fill="#000000" stroke="none" font-family="Courier" font-size="11px" font-style="normal" font-weight="normal" text-decoration="none" x="149" y="163.515380859375">+player: Token[] =  </text></g></g><g transform="translate(-134,-46) scale(1,1)"><g><path fill="none" stroke="none"/><text fill="#000000" stroke="none" font-family="Courier" font-size="11px" font-style="normal" font-weight="normal" text-decoration="none" x="149" y="176.515380859375">+phase: GamePhase =  </text></g></g><g transform="translate(-134,-46) scale(1,1)"><rect fill="#ffffff" stroke="none" x="336" y="56" width="312" height="87"/></g><g transform="translate(-134,-46) scale(1,1)"><path fill="none" stroke="#000000" d="M 336 56 L 648 56 L 648 143 L 336 143 L 336 56 Z Z" stroke-miterlimit="10"/></g><g transform="translate(-134,-46) scale(1,1)"><g><path fill="none" stroke="none"/><text fill="#000000" stroke="none" font-family="Courier" font-size="11px" font-style="normal" font-weight="normal" text-decoration="none" x="341" y="68.03076171875">{{null, null, null, null, null, null, null}, </text></g></g><g transform="translate(-134,-46) scale(1,1)"><g><path fill="none" stroke="none"/><text fill="#000000" stroke="none" font-family="Courier" font-size="11px" font-style="normal" font-weight="normal" text-decoration="none" x="341" y="81.03076171875"> {null, null, null, null, null, null, null}, </text></g></g><g transform="translate(-134,-46) scale(1,1)"><g><path fill="none" stroke="none"/><text fill="#000000" stroke="none" font-family="Courier" font-size="11px" font-style="normal" font-weight="normal" text-decoration="none" x="341" y="94.03076171875"> {null, null, null, null, null, null, null}, </text></g></g><g transform="translate(-134,-46) scale(1,1)"><g><path fill="none" stroke="none"/><text fill="#000000" stroke="none" font-family="Courier" font-size="11px" font-style="normal" font-weight="normal" text-decoration="none" x="341" y="107.03076171875"> {null, null, null, null, null, null, null}, </text></g></g><g transform="translate(-134,-46) scale(1,1)"><g><path fill="none" stroke="none"/><text fill="#000000" stroke="none" font-family="Courier" font-size="11px" font-style="normal" font-weight="normal" text-decoration="none" x="341" y="120.03076171875"> {null, null, null, null, null, null, null}, </text></g></g><g transform="translate(-134,-46) scale(1,1)"><g><path fill="none" stroke="none"/><text fill="#000000" stroke="none" font-family="Courier" font-size="11px" font-style="normal" font-weight="normal" text-decoration="none" x="341" y="133.03076171875"> {null, null, null, null, null, null, null}}</text></g></g><g transform="translate(-134,-46) scale(1,1)"><rect fill="#ffffff" stroke="none" x="336" y="152" width="96" height="22"/></g><g transform="translate(-134,-46) scale(1,1)"><path fill="none" stroke="#000000" d="M 336 152 L 432 152 L 432 174 L 336 174 L 336 152 Z Z" stroke-miterlimit="10"/></g><g transform="translate(-134,-46) scale(1,1)"><g><path fill="none" stroke="none"/><text fill="#000000" stroke="none" font-family="Courier" font-size="11px" font-style="normal" font-weight="normal" text-decoration="none" x="341" y="164.03076171875">{null, null}</text></g></g><g transform="translate(-134,-46) scale(1,1)"><path fill="none" stroke="#000000" d="M 272 144 L 336 104" stroke-miterlimit="10"/></g><g transform="translate(-134,-46) scale(1,1)"><path fill="none" stroke="#000000" d="M 329.61310890519263 112.95587081991863 L 336 104 L 325.15102900796654 105.81654298435691" stroke-miterlimit="10"/></g><g transform="translate(-134,-46) scale(1,1)"><path fill="none" stroke="#000000" d="M 272 160 L 336 160" stroke-miterlimit="10"/></g><g transform="translate(-134,-46) scale(1,1)"><path fill="none" stroke="#000000" d="M 325.83732514237585 164.209517756016 L 336 160 L 325.83732514237585 155.790482243984" stroke-miterlimit="10"/></g><g transform="translate(-134,-46) scale(1,1)"><rect fill="#C0C0C0" stroke="none" x="343" y="191" width="94.81396484375" height="22" opacity="0.2"/></g><g transform="translate(-134,-46) scale(1,1)"><rect fill="#ffffff" stroke="none" x="336" y="184" width="94.81396484375" height="22"/></g><g transform="translate(-134,-46) scale(1,1)"><path fill="none" stroke="#000000" d="M 336 184 L 430.81396484375 184 L 430.81396484375 206 L 336 206 L 336 184 Z Z" stroke-miterlimit="10"/></g><g transform="translate(-134,-46) scale(1,1)"><rect fill="#ffffff" stroke="none" x="336" y="184" width="94.81396484375" height="22"/></g><g transform="translate(-134,-46) scale(1,1)"><path fill="none" stroke="#000000" d="M 336 184 L 430.81396484375 184 L 430.81396484375 206 L 336 206 L 336 184 Z Z" stroke-miterlimit="10"/></g><g transform="translate(-134,-46) scale(1,1)"><g><path fill="none" stroke="none"/><text fill="#000000" stroke="none" font-family="Courier" font-size="11px" font-style="normal" font-weight="bold" text-decoration="none" x="340.5" y="199.515380859375">GamePhase.NEW</text><path fill="none" stroke="#000000" d="M 426.31396484375 201.5 L 340.5 201.5" stroke-miterlimit="10"/></g></g><g transform="translate(-134,-46) scale(1,1)"><path fill="none" stroke="#000000" d="M 280 176 L 336 192" stroke-miterlimit="10"/></g><g transform="translate(-134,-46) scale(1,1)"><path fill="none" stroke="#000000" d="M 325.07190128647034 193.2556506310878 L 336 192 L 327.38478821814385 185.16054637023055" stroke-miterlimit="10"/></g></g></svg>