<svg width="2544" height="587" xmlns="http://www.w3.org/2000/svg" xmlns:xlink="http://www.w3.org/1999/xlink" xml:space="preserve" overflow="hidden"><defs><clipPath id="clip0"><rect x="499" y="311" width="2544" height="587"/></clipPath></defs><g clip-path="url(#clip0)" transform="translate(-499 -311)"><path d="M1209 596 1209 725.546" stroke="#FFC000" stroke-width="2.29167" stroke-linecap="butt" stroke-linejoin="miter" stroke-miterlimit="8" stroke-dasharray="9.16667 6.875" stroke-opacity="1" fill="none" fill-rule="evenodd"/><path d="M1753 480 1753 596.252" stroke="#FFC000" stroke-width="2.29167" stroke-linecap="butt" stroke-linejoin="miter" stroke-miterlimit="8" stroke-dasharray="9.16667 6.875" stroke-opacity="1" fill="none" fill-rule="evenodd"/><path d="M2360 596 2360 723.948" stroke="#FFC000" stroke-width="2.29167" stroke-linecap="butt" stroke-linejoin="miter" stroke-miterlimit="8" stroke-dasharray="9.16667 6.875" stroke-opacity="1" fill="none" fill-rule="evenodd"/><path d="M693 472 693 595.931" stroke="#FFC000" stroke-width="2.29167" stroke-linecap="butt" stroke-linejoin="miter" stroke-miterlimit="8" stroke-dasharray="9.16667 6.875" stroke-opacity="1" fill="none" fill-rule="evenodd"/><path d="M740.5 563.001C740.5 553.335 748.335 545.5 758 545.5L1169 545.5C1178.66 545.5 1186.5 553.335 1186.5 563.001L1186.5 632.999C1186.5 642.665 1178.66 650.5 1169 650.5L758 650.5C748.335 650.5 740.5 642.665 740.5 632.999Z" stroke="#2F528F" stroke-width="4.58333" stroke-linecap="butt" stroke-linejoin="miter" stroke-miterlimit="8" stroke-opacity="1" fill="#4472C4" fill-rule="evenodd" fill-opacity="1"/><text fill="#FFFFFF" fill-opacity="1" font-family="Calibri,Calibri_MSFontService,sans-serif" font-style="normal" font-variant="normal" font-weight="400" font-stretch="normal" font-size="50" text-anchor="start" direction="ltr" writing-mode="lr-tb" unicode-bidi="normal" text-decoration="none" transform="matrix(1 0 0 1 784.78 614)">GamePhase.NEW</text><path d="M1258.5 563C1258.5 553.335 1266.34 545.5 1276 545.5L1713 545.5C1722.66 545.5 1730.5 553.335 1730.5 563L1730.5 633C1730.5 642.665 1722.66 650.5 1713 650.5L1276 650.5C1266.34 650.5 1258.5 642.665 1258.5 633Z" stroke="#2F528F" stroke-width="4.58333" stroke-linecap="butt" stroke-linejoin="miter" stroke-miterlimit="8" stroke-opacity="1" fill="#4472C4" fill-rule="evenodd" fill-opacity="1"/><text fill="#FFFFFF" fill-opacity="1" font-family="Calibri,Calibri_MSFontService,sans-serif" font-style="normal" font-variant="normal" font-weight="400" font-stretch="normal" font-size="50" text-anchor="start" direction="ltr" writing-mode="lr-tb" unicode-bidi="normal" text-decoration="none" transform="matrix(1 0 0 1 1298.19 614)">GamePhase.READY</text><path d="M1802.5 563.001C1802.5 553.335 1810.34 545.5 1820 545.5L2320 545.5C2329.66 545.5 2337.5 553.335 2337.5 563.001L2337.5 632.999C2337.5 642.665 2329.66 650.5 2320 650.5L1820 650.5C1810.34 650.5 1802.5 642.665 1802.5 632.999Z" stroke="#2F528F" stroke-width="4.58333" stroke-linecap="butt" stroke-linejoin="miter" stroke-miterlimit="8" stroke-opacity="1" fill="#4472C4" fill-rule="evenodd" fill-opacity="1"/><text fill="#FFFFFF" fill-opacity="1" font-family="Calibri,Calibri_MSFontService,sans-serif" font-style="normal" font-variant="normal" font-weight="400" font-stretch="normal" font-size="50" text-anchor="start" direction="ltr" writing-mode="lr-tb" unicode-bidi="normal" text-decoration="none" transform="matrix(1 0 0 1 1840.17 614)">GamePhase.PLAYABLE</text><path d="M2409.5 561.834C2409.5 552.261 2417.26 544.5 2426.83 544.5L2853.17 544.5C2862.74 544.5 2870.5 552.261 2870.5 561.834L2870.5 631.166C2870.5 640.74 2862.74 648.5 2853.17 648.5L2426.83 648.5C2417.26 648.5 2409.5 640.74 2409.5 631.166Z" stroke="#2F528F" stroke-width="4.58333" stroke-linecap="butt" stroke-linejoin="miter" stroke-miterlimit="8" stroke-opacity="1" fill="#4472C4" fill-rule="evenodd" fill-opacity="1"/><text fill="#FFFFFF" fill-opacity="1" font-family="Calibri,Calibri_MSFontService,sans-serif" font-style="normal" font-variant="normal" font-weight="400" font-stretch="normal" font-size="50" text-anchor="start" direction="ltr" writing-mode="lr-tb" unicode-bidi="normal" text-decoration="none" transform="matrix(1 0 0 1 2454.75 613)">GamePhase.OVER</text><path d="M5.7219e-06-1.14583 49.3535-1.14559 49.3535 1.14608-5.7219e-06 1.14583ZM44.7702-13.7498 72.2701 0.000360892 44.7701 13.7502Z" fill="#4472C4" fill-rule="nonzero" fill-opacity="1" transform="matrix(1 0 0 -1 1186 597)"/><path d="M1730 595.854 1779.35 595.855 1779.35 598.146 1730 598.146ZM1774.77 583.25 1802.27 597 1774.77 610.75Z" fill="#4472C4" fill-rule="nonzero" fill-opacity="1"/><path d="M0.0229345-1.1456 49.381-0.157477 49.3351 2.13373-0.0229345 1.1456ZM45.0509-12.8509 72.2701 1.44682 44.5004 14.6436Z" fill="#4472C4" fill-rule="nonzero" fill-opacity="1" transform="matrix(1 0 0 -1 2337 597.447)"/><rect x="1104" y="726" width="959" height="155" stroke="#FFC000" stroke-width="2.29167" stroke-linecap="butt" stroke-linejoin="round" stroke-miterlimit="10" stroke-opacity="1" fill="#FFFFFF" fill-opacity="1"/><text fill="#000000" fill-opacity="1" font-family="Calibri,Calibri_MSFontService,sans-serif" font-style="normal" font-variant="normal" font-weight="400" font-stretch="normal" font-size="50" text-anchor="start" direction="ltr" writing-mode="lr-tb" unicode-bidi="normal" text-decoration="none" transform="matrix(1 0 0 1 1136.68 789)">Change triggered by:<tspan fill="#000000" fill-opacity="1" font-family="Courier,Courier_MSFontService,sans-serif" font-style="normal" font-variant="normal" font-weight="400" font-stretch="normal" font-size="50" text-anchor="start" direction="ltr" writing-mode="lr-tb" unicode-bidi="normal" text-decoration="none" x="0" y="59">setPlayerTokens</tspan><tspan fill="#000000" fill-opacity="1" font-family="Courier,Courier_MSFontService,sans-serif" font-style="normal" font-variant="normal" font-weight="400" font-stretch="normal" font-size="50" text-anchor="start" direction="ltr" writing-mode="lr-tb" unicode-bidi="normal" text-decoration="none" x="455.469" y="59">(Token, Token)</tspan></text><rect x="1282" y="316" width="653" height="156" stroke="#FFC000" stroke-width="2.29167" stroke-linecap="butt" stroke-linejoin="round" stroke-miterlimit="10" stroke-opacity="1" fill="#FFFFFF" fill-opacity="1"/><text fill="#000000" fill-opacity="1" font-family="Calibri,Calibri_MSFontService,sans-serif" font-style="normal" font-variant="normal" font-weight="400" font-stretch="normal" font-size="50" text-anchor="start" direction="ltr" writing-mode="lr-tb" unicode-bidi="normal" text-decoration="none" transform="matrix(1 0 0 1 1315.21 380)">Change triggered by:<tspan fill="#000000" fill-opacity="1" font-family="Courier,Courier_MSFontService,sans-serif" font-style="normal" font-variant="normal" font-weight="400" font-stretch="normal" font-size="50" text-anchor="start" direction="ltr" writing-mode="lr-tb" unicode-bidi="normal" text-decoration="none" x="0" y="59">dropToken</tspan><tspan fill="#000000" fill-opacity="1" font-family="Courier,Courier_MSFontService,sans-serif" font-style="normal" font-variant="normal" font-weight="400" font-stretch="normal" font-size="50" text-anchor="start" direction="ltr" writing-mode="lr-tb" unicode-bidi="normal" text-decoration="none" x="273.281" y="59">(int, int)</tspan></text><rect x="2269" y="729" width="769" height="156" stroke="#FFC000" stroke-width="2.29167" stroke-linecap="butt" stroke-linejoin="round" stroke-miterlimit="10" stroke-opacity="1" fill="#FFFFFF" fill-opacity="1"/><text fill="#000000" fill-opacity="1" font-family="Calibri,Calibri_MSFontService,sans-serif" font-style="normal" font-variant="normal" font-weight="400" font-stretch="normal" font-size="50" text-anchor="start" direction="ltr" writing-mode="lr-tb" unicode-bidi="normal" text-decoration="none" transform="matrix(1 0 0 1 2302.27 793)">Change triggered by:<tspan fill="#000000" fill-opacity="1" font-family="Courier,Courier_MSFontService,sans-serif" font-style="normal" font-variant="normal" font-weight="400" font-stretch="normal" font-size="50" text-anchor="start" direction="ltr" writing-mode="lr-tb" unicode-bidi="normal" text-decoration="none" x="0" y="58">isLastDropConnectFour</tspan><tspan fill="#000000" fill-opacity="1" font-family="Courier,Courier_MSFontService,sans-serif" font-style="normal" font-variant="normal" font-weight="400" font-stretch="normal" font-size="50" text-anchor="start" direction="ltr" writing-mode="lr-tb" unicode-bidi="normal" text-decoration="none" x="637.656" y="58">()</tspan></text><path d="M668.004 594.854 717.358 595.04 717.349 597.332 667.996 597.146ZM712.822 582.419 740.27 596.273 712.718 609.919Z" fill="#4472C4" fill-rule="nonzero" fill-opacity="1"/><rect x="504" y="316" width="705" height="156" stroke="#FFC000" stroke-width="2.29167" stroke-linecap="butt" stroke-linejoin="round" stroke-miterlimit="10" stroke-opacity="1" fill="#FFFFFF" fill-opacity="1"/><text fill="#000000" fill-opacity="1" font-family="Calibri,Calibri_MSFontService,sans-serif" font-style="normal" font-variant="normal" font-weight="400" font-stretch="normal" font-size="50" text-anchor="start" direction="ltr" writing-mode="lr-tb" unicode-bidi="normal" text-decoration="none" transform="matrix(1 0 0 1 536.817 380)">Change triggered by:<tspan fill="#000000" fill-opacity="1" font-family="Courier,Courier_MSFontService,sans-serif" font-style="normal" font-variant="normal" font-weight="400" font-stretch="normal" font-size="50" text-anchor="start" direction="ltr" writing-mode="lr-tb" unicode-bidi="normal" text-decoration="none" x="0" y="59">ConnectFour</tspan><tspan fill="#000000" fill-opacity="1" font-family="Courier,Courier_MSFontService,sans-serif" font-style="normal" font-variant="normal" font-weight="400" font-stretch="normal" font-size="50" text-anchor="start" direction="ltr" writing-mode="lr-tb" unicode-bidi="normal" text-decoration="none" x="334.01" y="59">(int, int)</tspan></text></g></svg>